<svg version="1.1" viewBox="0 0 51.769 65.403" xmlns="http://www.w3.org/2000/svg">
 <g transform="translate(-18.796 -34.752)">
  <text x="45.302185" y="73.900024" fill="#000000" font-family="sans-serif" font-size="10.583px" stroke-width=".26458" style="line-height:1.25" xml:space="preserve"><tspan x="45.302185" y="73.900024" stroke-width=".26458"/></text>
  <g>
   <g fill-rule="evenodd" stroke="#f9efdc" stroke-opacity=".98039">
    <rect x="19.59" y="35.546" width="12.568" height="50.014" fill="#28764e" stroke-width="1.587"/>
    <rect x="32.158" y="46.045" width="12.568" height="39.515" fill="#a85439" stroke-width="1.5875"/>
    <rect x="44.635" y="41.087" width="12.568" height="44.473" fill="#a88939" stroke-width="1.587"/>
    <rect x="57.203" y="54.985" width="12.568" height="30.575" fill="#6d256d" stroke-width="1.587"/>
   </g>
   <rect x="57.996" y="55.777" width="4.1281" height="29.235" fill="#5c125b"/>
   <rect x="20.384" y="36.344" width="4.1281" height="48.417" fill="#28674e"/>
   <rect x="32.952" y="46.845" width="4.1281" height="37.911" fill="#8b5439"/>
   <rect x="45.428" y="41.879" width="4.1281" height="42.884" fill="#a8772a"/>
   <rect x="19.59" y="85.56" width="50.181" height="13.801" fill="#28764e" stroke="#f9efdc" stroke-linejoin="round" stroke-opacity=".98039" stroke-width="1.587"/>
  </g>
  <g fill="#f9efdc" fill-opacity=".98" stroke-width=".26458" aria-label="bookclub">
   <path d="m28.175 93.524q0 0.65112-0.22221 1.1886-0.22221 0.53743-0.60461 0.925-0.3824 0.3824-0.89917 0.59428-0.5116 0.21187-1.1007 0.21187-0.58394 0-1.1007-0.21704-0.5116-0.21704-0.89917-0.60461-0.3824-0.38757-0.60461-0.91984-0.22221-0.53743-0.22221-1.1782v-4.9196h1.4159v2.5838q0.11369-0.14469 0.27388-0.25838 0.16536-0.11369 0.3514-0.18604 0.1912-0.07235 0.39274-0.10852 0.20154-0.04134 0.39274-0.04134 0.58911 0 1.1007 0.22221 0.51676 0.21704 0.89917 0.60978 0.3824 0.39274 0.60461 0.93017 0.22221 0.53226 0.22221 1.1679zm-1.4211 0q0-0.32039-0.11369-0.59428-0.10852-0.27905-0.29972-0.48059-0.1912-0.20154-0.44958-0.31522-0.25321-0.11369-0.5426-0.11369t-0.54777 0.12919q-0.25321 0.12402-0.44442 0.3359-0.1912 0.20671-0.29972 0.48059-0.10852 0.26872-0.10852 0.5581 0 0.32039 0.10852 0.59428 0.10852 0.27388 0.29972 0.47542 0.1912 0.20154 0.44442 0.32039 0.25838 0.11369 0.54777 0.11369t0.5426-0.11369q0.25838-0.11886 0.44958-0.32039 0.1912-0.20154 0.29972-0.47542 0.11369-0.27388 0.11369-0.59428z"/>
   <path d="m34.394 93.524q0 0.62012-0.22221 1.1575-0.22221 0.53226-0.60461 0.925-0.3824 0.38757-0.89917 0.61495-0.5116 0.22221-1.1007 0.22221-0.58394 0-1.1007-0.22221-0.5116-0.22738-0.89917-0.61495-0.3824-0.39274-0.60461-0.925-0.22221-0.53743-0.22221-1.1575 0-0.63045 0.22221-1.1679 0.22221-0.53743 0.60461-0.925 0.38757-0.39274 0.89917-0.61495 0.51676-0.22221 1.1007-0.22221 0.58911 0 1.1007 0.21187 0.51676 0.2067 0.89917 0.59428 0.3824 0.3824 0.60461 0.925 0.22221 0.53743 0.22221 1.1989zm-1.4211 0q0-0.34106-0.11369-0.61495-0.10852-0.27905-0.29972-0.47542-0.1912-0.20154-0.44958-0.30489-0.25321-0.10852-0.5426-0.10852-0.28939 0-0.54777 0.10852-0.25321 0.10335-0.44442 0.30489-0.18603 0.19637-0.29456 0.47542-0.10852 0.27388-0.10852 0.61495 0 0.32039 0.10852 0.59428 0.10852 0.27388 0.29456 0.47542 0.1912 0.20154 0.44442 0.32039 0.25838 0.11369 0.54777 0.11369 0.28939 0 0.5426-0.10852 0.25838-0.10852 0.44958-0.30489t0.29972-0.47542q0.11369-0.27905 0.11369-0.61495z"/>
   <path d="m40.613 93.524q0 0.62012-0.22221 1.1575-0.22221 0.53226-0.60461 0.925-0.3824 0.38757-0.89917 0.61495-0.5116 0.22221-1.1007 0.22221-0.58394 0-1.1007-0.22221-0.5116-0.22738-0.89917-0.61495-0.3824-0.39274-0.60461-0.925-0.22221-0.53743-0.22221-1.1575 0-0.63045 0.22221-1.1679t0.60461-0.925q0.38757-0.39274 0.89917-0.61495 0.51676-0.22221 1.1007-0.22221 0.58911 0 1.1007 0.21187 0.51676 0.2067 0.89917 0.59428 0.3824 0.3824 0.60461 0.925 0.22221 0.53743 0.22221 1.1989zm-1.4211 0q0-0.34106-0.11369-0.61495-0.10852-0.27905-0.29972-0.47542-0.1912-0.20154-0.44958-0.30489-0.25321-0.10852-0.5426-0.10852t-0.54777 0.10852q-0.25321 0.10335-0.44442 0.30489-0.18603 0.19637-0.29455 0.47542-0.10852 0.27388-0.10852 0.61495 0 0.32039 0.10852 0.59428 0.10852 0.27388 0.29455 0.47542 0.1912 0.20154 0.44442 0.32039 0.25838 0.11369 0.54777 0.11369t0.5426-0.10852q0.25838-0.10852 0.44958-0.30489t0.29972-0.47542q0.11369-0.27905 0.11369-0.61495z"/>
   <path d="m42.904 96.34h-1.4211v-7.7359h1.4211v4.8782l2.1032-2.6665h1.6226l-1.8345 2.3048 1.8345 3.2194h-1.6226l-1.1214-2.0102-0.98185 1.3022z"/>
   <path d="m51.944 91.906-1.0335 1.0387q-0.07751-0.21704-0.21187-0.38757-0.13436-0.1757-0.30489-0.29455-0.16536-0.11886-0.36173-0.18087-0.19637-0.06201-0.40308-0.06201-0.28939 0-0.54777 0.11886-0.25321 0.11886-0.44442 0.3359-0.18604 0.21187-0.29456 0.50643-0.10852 0.29455-0.10852 0.65112 0 0.28939 0.10852 0.5426 0.10852 0.25321 0.29456 0.44442 0.1912 0.1912 0.44442 0.29972 0.25838 0.10852 0.54777 0.10852 0.2067 0 0.39791-0.05684 0.1912-0.05684 0.35657-0.1602 0.17053-0.10852 0.29972-0.25838 0.13436-0.15503 0.21704-0.34106l1.0335 1.0387q-0.19637 0.27905-0.45475 0.50126-0.25321 0.22221-0.55294 0.37724-0.29455 0.15503-0.62528 0.23254-0.32556 0.08268-0.67179 0.08268-0.58394 0-1.1007-0.21704-0.5116-0.22221-0.89917-0.60461-0.3824-0.3824-0.60461-0.894-0.22221-0.5116-0.22221-1.0955 0-0.63562 0.22221-1.1886 0.22221-0.55294 0.60461-0.96118 0.38757-0.41341 0.89917-0.65112 0.51676-0.23771 1.1007-0.23771 0.34623 0 0.67696 0.08785 0.3359 0.08785 0.63562 0.25838 0.30489 0.16536 0.5581 0.40824 0.25838 0.24288 0.44442 0.5581z"/>
   <path d="m54.143 96.34h-1.4211v-7.7359h1.4211z"/>
   <path d="m59.375 95.694q-0.17053 0.15503-0.3669 0.29455-0.1912 0.13436-0.40308 0.23771-0.21187 0.09819-0.43925 0.15503-0.22221 0.06201-0.45475 0.06201-0.5116 0-0.96118-0.18087-0.44958-0.18087-0.79065-0.5116-0.3359-0.3359-0.53226-0.81132-0.1912-0.48059-0.1912-1.0749v-3.0592h1.4056v3.0592q0 0.27905 0.08268 0.50126 0.08785 0.21704 0.23254 0.3669 0.14469 0.14986 0.3359 0.22738 0.19637 0.07751 0.41858 0.07751 0.21704 0 0.40824-0.09819 0.19637-0.10335 0.34106-0.26872 0.14469-0.16536 0.22738-0.37207 0.08268-0.21187 0.08268-0.43408v-3.0592h1.4108v5.5345h-0.34106z"/>
   <path d="m66.885 93.524q0 0.65112-0.22221 1.1886-0.22221 0.53743-0.60461 0.925-0.3824 0.3824-0.89917 0.59428-0.5116 0.21187-1.1007 0.21187-0.58394 0-1.1007-0.21704-0.5116-0.21704-0.89917-0.60461-0.3824-0.38757-0.60461-0.91984-0.22221-0.53743-0.22221-1.1782v-4.9196h1.4159v2.5838q0.11369-0.14469 0.27388-0.25838 0.16536-0.11369 0.3514-0.18604 0.1912-0.07235 0.39274-0.10852 0.20154-0.04134 0.39274-0.04134 0.58911 0 1.1007 0.22221 0.51676 0.21704 0.89917 0.60978 0.3824 0.39274 0.60461 0.93017 0.22221 0.53226 0.22221 1.1679zm-1.4211 0q0-0.32039-0.11369-0.59428-0.10852-0.27905-0.29972-0.48059-0.1912-0.20154-0.44958-0.31522-0.25321-0.11369-0.5426-0.11369-0.28939 0-0.54777 0.12919-0.25321 0.12402-0.44442 0.3359-0.1912 0.20671-0.29972 0.48059-0.10852 0.26872-0.10852 0.5581 0 0.32039 0.10852 0.59428 0.10852 0.27388 0.29972 0.47542 0.1912 0.20154 0.44442 0.32039 0.25838 0.11369 0.54777 0.11369 0.28939 0 0.5426-0.11369 0.25838-0.11886 0.44958-0.32039 0.1912-0.20154 0.29972-0.47542 0.11369-0.27388 0.11369-0.59428z"/>
  </g>
 </g>
</svg>
