<svg version="1.1" viewBox="0 0 50.171 62.561" xmlns="http://www.w3.org/2000/svg">
 <g transform="translate(57.565 -.67136)">
  <g transform="translate(0 .093869)">
   <g transform="translate(-18.796 -34.752)">
    <rect x="-1.1662" y="54.842" width="12.568" height="30.575" fill="#6d256d" fill-rule="evenodd"/>
    <rect x="-1.1662" y="54.842" width="3.8475" height="30.495" fill="#5c125b"/>
    <rect transform="rotate(-90)" x="-58.16" y=".68217" width="1.2238" height="8.9277" fill="#ccecc9" fill-opacity=".49799"/>
   </g>
   <rect transform="rotate(-90 -26.774 -7.9781)" x="-83.574" y=".68217" width="1.2238" height="8.9277" fill="#ccecc9" fill-opacity=".49799"/>
  </g>
 </g>
 <g transform="translate(38.769 -35.424)">
  <rect x="-13.734" y="40.944" width="12.568" height="44.473" fill="#a88939" fill-rule="evenodd"/>
  <rect x="-13.734" y="40.944" width="4.0345" height="44.381" fill="#a8772a"/>
  <rect transform="rotate(-90)" x="-44.354" y="-11.547" width="1.2238" height="8.9277" fill="#ccecc9" fill-opacity=".49799"/>
  <rect transform="rotate(-90)" x="-83.562" y="-11.547" width="1.2238" height="8.9277" fill="#ccecc9" fill-opacity=".49799"/>
  <g transform="translate(-.16071 .020408)">
   <rect x="-38.608" y="35.403" width="12.568" height="50.014" fill="#28764e" fill-rule="evenodd"/>
   <rect x="-38.608" y="35.403" width="3.4733" height="49.911" fill="#28674e"/>
   <rect transform="rotate(-90)" x="-39.012" y="-36.775" width="1.2238" height="8.9277" fill="#ccecc9" fill-opacity=".49799"/>
   <rect transform="rotate(-90)" x="-83.56" y="-36.756" width="1.2238" height="8.9277" fill="#ccecc9" fill-opacity=".49799"/>
  </g>
 </g>
 <g transform="translate(57.565 -.67136)">
  <g transform="translate(-18.786 -34.732)">
   <rect x="-26.212" y="45.902" width="12.568" height="39.515" fill="#a85439" fill-rule="evenodd"/>
   <rect x="-26.212" y="45.902" width="3.6604" height="39.408" fill="#8b5439"/>
   <rect transform="rotate(-90)" x="-49.344" y="-24.426" width="1.2238" height="8.9277" fill="#ccecc9" fill-opacity=".49799"/>
   <rect transform="rotate(-90)" x="-83.556" y="-24.426" width="1.2238" height="8.9277" fill="#ccecc9" fill-opacity=".49799"/>
  </g>
 </g>
 <g transform="translate(38.769 -35.424)">
  <rect transform="rotate(90)" x="85.351" y="-11.402" width="12.634" height="50.171" fill="#28764e" fill-rule="evenodd"/>
  <rect transform="rotate(-90)" x="-86.558" y="-38.769" width="1.2238" height="50.171" fill="#284b26"/>
  <g transform="translate(-59.217 .41375)" fill="#fff" aria-label="bookclub">
   <g fill="#fff" aria-label="bookclub">
    <path d="m28.599 93.017q0 0.73794-0.25184 1.347-0.25184 0.60909-0.68523 1.0483-0.43339 0.43339-1.0191 0.67351-0.57981 0.24012-1.2475 0.24012-0.6618 0-1.2475-0.24598-0.57981-0.24598-1.0191-0.68523-0.43339-0.43925-0.68523-1.0425-0.25184-0.60909-0.25184-1.3353v-5.5755h1.6047v2.9283q0.12885-0.16399 0.3104-0.29283 0.18741-0.12885 0.39825-0.21084 0.2167-0.08199 0.4451-0.12299 0.22841-0.04685 0.4451-0.04685 0.66766 0 1.2475 0.25184 0.58566 0.24598 1.0191 0.69108 0.43339 0.4451 0.68523 1.0542 0.25184 0.60323 0.25184 1.3236zm-1.6106 0q0-0.36311-0.12885-0.67351-0.12299-0.31626-0.33969-0.54467-0.2167-0.22841-0.50953-0.35726-0.28698-0.12885-0.61495-0.12885-0.32797 0-0.6208 0.14642-0.28698 0.14056-0.50367 0.38068-0.2167 0.23426-0.33968 0.54467-0.12299 0.30455-0.12299 0.63252 0 0.36311 0.12299 0.67351 0.12299 0.3104 0.33968 0.53881 0.2167 0.22841 0.50367 0.36311 0.29283 0.12885 0.6208 0.12885 0.32797 0 0.61495-0.12885 0.29283-0.1347 0.50953-0.36311 0.2167-0.22841 0.33969-0.53881 0.12885-0.3104 0.12885-0.67351z"/>
    <path d="m35.164 93.017q0 0.7028-0.25184 1.3119-0.25184 0.60323-0.68523 1.0483-0.43339 0.43925-1.0191 0.69694-0.57981 0.25184-1.2475 0.25184-0.6618 0-1.2475-0.25184-0.57981-0.25769-1.0191-0.69694-0.43339-0.4451-0.68523-1.0483-0.25184-0.60909-0.25184-1.3119 0-0.71451 0.25184-1.3236 0.25184-0.60909 0.68523-1.0483 0.43925-0.4451 1.0191-0.69694 0.58566-0.25184 1.2475-0.25184 0.66766 0 1.2475 0.24012 0.58566 0.23426 1.0191 0.67351 0.43339 0.43339 0.68523 1.0483 0.25184 0.60909 0.25184 1.3587zm-1.6106 0q0-0.38654-0.12885-0.69694-0.12299-0.31626-0.33968-0.53881-0.2167-0.22841-0.50953-0.34554-0.28698-0.12299-0.61495-0.12299t-0.6208 0.12299q-0.28698 0.11713-0.50367 0.34554-0.21084 0.22255-0.33383 0.53881-0.12299 0.3104-0.12299 0.69694 0 0.36311 0.12299 0.67351 0.12299 0.3104 0.33383 0.53881 0.2167 0.22841 0.50367 0.36311 0.29283 0.12885 0.6208 0.12885t0.61495-0.12299q0.29283-0.12299 0.50953-0.34554 0.2167-0.22255 0.33968-0.53881 0.12885-0.31626 0.12885-0.69694z"/>
    <path d="m41.729 93.017q0 0.7028-0.25184 1.3119-0.25184 0.60323-0.68523 1.0483-0.43339 0.43925-1.0191 0.69694-0.57981 0.25184-1.2475 0.25184-0.6618 0-1.2475-0.25184-0.57981-0.25769-1.0191-0.69694-0.43339-0.4451-0.68523-1.0483-0.25184-0.60909-0.25184-1.3119 0-0.71451 0.25184-1.3236 0.25184-0.60909 0.68523-1.0483 0.43925-0.4451 1.0191-0.69694 0.58566-0.25184 1.2475-0.25184 0.66766 0 1.2475 0.24012 0.58566 0.23426 1.0191 0.67351 0.43339 0.43339 0.68523 1.0483 0.25184 0.60909 0.25184 1.3587zm-1.6106 0q0-0.38654-0.12885-0.69694-0.12299-0.31626-0.33968-0.53881-0.2167-0.22841-0.50953-0.34554-0.28698-0.12299-0.61495-0.12299t-0.6208 0.12299q-0.28698 0.11713-0.50367 0.34554-0.21084 0.22255-0.33383 0.53881-0.12299 0.3104-0.12299 0.69694 0 0.36311 0.12299 0.67351 0.12299 0.3104 0.33383 0.53881 0.2167 0.22841 0.50367 0.36311 0.29283 0.12885 0.6208 0.12885t0.61495-0.12299q0.29283-0.12299 0.50953-0.34554 0.2167-0.22255 0.33968-0.53881 0.12885-0.31626 0.12885-0.69694z"/>
    <path d="m43.843 96.209h-1.6106v-8.7674h1.6106v5.5287l2.3837-3.022h1.839l-2.0791 2.6121 2.0791 3.6487h-1.839l-1.2709-2.2782-1.1128 1.4759z"/>
    <path d="m53.606 91.184-1.1713 1.1772q-0.08785-0.24598-0.24012-0.43925-0.15227-0.19913-0.34554-0.33383-0.18741-0.1347-0.40996-0.20498t-0.45682-0.07028q-0.32797 0-0.6208 0.1347-0.28698 0.1347-0.50367 0.38068-0.21084 0.24012-0.33383 0.57395-0.12299 0.33383-0.12299 0.73794 0 0.32797 0.12299 0.61495 0.12299 0.28698 0.33383 0.50367 0.2167 0.2167 0.50367 0.33969 0.29283 0.12299 0.6208 0.12299 0.23427 0 0.45096-0.06442 0.2167-0.06442 0.40411-0.18156 0.19327-0.12299 0.33968-0.29283 0.15227-0.1757 0.24598-0.38654l1.1713 1.1772q-0.22255 0.31626-0.51538 0.56809-0.28698 0.25184-0.62666 0.42754-0.33383 0.1757-0.70865 0.26355-0.36897 0.09371-0.76136 0.09371-0.6618 0-1.2475-0.24598-0.57981-0.25184-1.0191-0.68523-0.43339-0.43339-0.68523-1.0132-0.25184-0.57981-0.25184-1.2416 0-0.72037 0.25184-1.347 0.25184-0.62666 0.68523-1.0893 0.43925-0.46853 1.0191-0.73794 0.58566-0.26941 1.2475-0.26941 0.3924 0 0.76722 0.09956 0.38068 0.09956 0.72037 0.29283 0.34554 0.18741 0.63252 0.46268 0.29283 0.27526 0.50367 0.63252z"/>
    <path d="m55.614 96.209h-1.6106v-8.7674h1.6106z"/>
    <path d="m61.061 95.477q-0.19327 0.1757-0.41582 0.33383-0.2167 0.15227-0.45682 0.26941-0.24012 0.11128-0.49781 0.1757-0.25184 0.07028-0.51538 0.07028-0.57981 0-1.0893-0.20498-0.50953-0.20498-0.89607-0.57981-0.38068-0.38068-0.60323-0.91949-0.2167-0.54467-0.2167-1.2182v-3.4671h1.593v3.4671q0 0.31626 0.09371 0.56809 0.09956 0.24598 0.26355 0.41582 0.16399 0.16984 0.38068 0.25769 0.22255 0.08785 0.47439 0.08785 0.24598 0 0.46268-0.11128 0.22255-0.11713 0.38654-0.30454 0.16399-0.18741 0.25769-0.42168 0.09371-0.24012 0.09371-0.49196v-3.4671h1.5989v6.2725h-0.38654z"/>
    <path d="m69.09 93.017q0 0.73794-0.25184 1.347-0.25184 0.60909-0.68523 1.0483-0.43339 0.43339-1.0191 0.67351-0.57981 0.24012-1.2475 0.24012-0.6618 0-1.2475-0.24598-0.57981-0.24598-1.0191-0.68523-0.43339-0.43925-0.68523-1.0425-0.25184-0.60909-0.25184-1.3353v-5.5755h1.6047v2.9283q0.12885-0.16399 0.3104-0.29283 0.18741-0.12885 0.39825-0.21084 0.2167-0.08199 0.4451-0.12299 0.22841-0.04685 0.4451-0.04685 0.66766 0 1.2475 0.25184 0.58566 0.24598 1.0191 0.69108 0.43339 0.4451 0.68523 1.0542 0.25184 0.60323 0.25184 1.3236zm-1.6106 0q0-0.36311-0.12885-0.67351-0.12299-0.31626-0.33968-0.54467-0.2167-0.22841-0.50953-0.35726-0.28698-0.12885-0.61495-0.12885t-0.6208 0.14642q-0.28698 0.14056-0.50367 0.38068-0.2167 0.23426-0.33968 0.54467-0.12299 0.30455-0.12299 0.63252 0 0.36311 0.12299 0.67351 0.12299 0.3104 0.33968 0.53881 0.2167 0.22841 0.50367 0.36311 0.29283 0.12885 0.6208 0.12885t0.61495-0.12885q0.29283-0.1347 0.50953-0.36311 0.2167-0.22841 0.33968-0.53881 0.12885-0.3104 0.12885-0.67351z"/>
   </g>
  </g>
 </g>
</svg>
