<?xml version="1.0" encoding="UTF-8" standalone="no"?>
<svg
   xmlns:dc="http://purl.org/dc/elements/1.1/"
   xmlns:cc="http://creativecommons.org/ns#"
   xmlns:rdf="http://www.w3.org/1999/02/22-rdf-syntax-ns#"
   xmlns:svg="http://www.w3.org/2000/svg"
   xmlns="http://www.w3.org/2000/svg"
   xmlns:sodipodi="http://sodipodi.sourceforge.net/DTD/sodipodi-0.dtd"
   xmlns:inkscape="http://www.inkscape.org/namespaces/inkscape"
   width="234.96883mm"
   height="109.8736mm"
   version="1.1"
   viewBox="0 0 234.96883 109.8736"
   id="svg8909"
   sodipodi:docname="tumbleweed.svg"
   inkscape:version="1.0.2 (e86c870879, 2021-01-15, custom)">
  <metadata
     id="metadata8913">
    <rdf:RDF>
      <cc:Work
         rdf:about="">
        <dc:format>image/svg+xml</dc:format>
        <dc:type
           rdf:resource="http://purl.org/dc/dcmitype/StillImage" />
        <dc:title></dc:title>
      </cc:Work>
    </rdf:RDF>
  </metadata>
  <sodipodi:namedview
     pagecolor="#ffffff"
     bordercolor="#666666"
     borderopacity="1"
     objecttolerance="10"
     gridtolerance="10"
     guidetolerance="10"
     inkscape:pageopacity="0"
     inkscape:pageshadow="2"
     inkscape:window-width="1920"
     inkscape:window-height="1057"
     id="namedview8911"
     showgrid="false"
     fit-margin-top="0"
     fit-margin-left="0"
     fit-margin-right="0"
     fit-margin-bottom="0"
     inkscape:zoom="0.6838686"
     inkscape:cx="544.21164"
     inkscape:cy="266.59257"
     inkscape:window-x="-8"
     inkscape:window-y="1072"
     inkscape:window-maximized="1"
     inkscape:current-layer="layer4" />
  <defs
     id="defs8783">
    <marker
       id="marker4108"
       overflow="visible"
       orient="auto">
      <path
         transform="matrix(0.8,0,0,0.8,10,0)"
         d="M 0,0 5,-5 -12.5,0 5,5 Z"
         fill-rule="evenodd"
         stroke="#000000"
         stroke-width="1pt"
         id="path8708" />
    </marker>
    <marker
       id="marker4098"
       overflow="visible"
       orient="auto">
      <path
         transform="matrix(0.8,0,0,0.8,10,0)"
         d="M 0,0 5,-5 -12.5,0 5,5 Z"
         fill-rule="evenodd"
         stroke="#000000"
         stroke-width="1pt"
         id="path8711" />
    </marker>
    <marker
       id="marker3914"
       overflow="visible"
       orient="auto">
      <path
         transform="matrix(0.8,0,0,0.8,10,0)"
         d="M 0,0 5,-5 -12.5,0 5,5 Z"
         fill-rule="evenodd"
         stroke="#000000"
         stroke-width="1pt"
         id="path8714" />
    </marker>
    <marker
       id="marker3736"
       overflow="visible"
       orient="auto">
      <path
         transform="matrix(0.8,0,0,0.8,10,0)"
         d="M 0,0 5,-5 -12.5,0 5,5 Z"
         fill-rule="evenodd"
         stroke="#000000"
         stroke-width="1pt"
         id="path8717" />
    </marker>
    <marker
       id="marker3398"
       overflow="visible"
       orient="auto">
      <path
         transform="matrix(0.8,0,0,0.8,10,0)"
         d="M 0,0 5,-5 -12.5,0 5,5 Z"
         fill-rule="evenodd"
         stroke="#000000"
         stroke-width="1pt"
         id="path8720" />
    </marker>
    <marker
       id="marker2936"
       overflow="visible"
       orient="auto">
      <path
         transform="matrix(0.8,0,0,0.8,10,0)"
         d="M 0,0 5,-5 -12.5,0 5,5 Z"
         fill-rule="evenodd"
         stroke="#000000"
         stroke-width="1pt"
         id="path8723" />
    </marker>
    <marker
       id="marker2794"
       overflow="visible"
       orient="auto">
      <path
         transform="matrix(0.8,0,0,0.8,10,0)"
         d="M 0,0 5,-5 -12.5,0 5,5 Z"
         fill-rule="evenodd"
         stroke="#000000"
         stroke-width="1pt"
         id="path8726" />
    </marker>
    <marker
       id="marker2658"
       overflow="visible"
       orient="auto">
      <path
         transform="matrix(0.8,0,0,0.8,10,0)"
         d="M 0,0 5,-5 -12.5,0 5,5 Z"
         fill-rule="evenodd"
         stroke="#000000"
         stroke-width="1pt"
         id="path8729" />
    </marker>
    <marker
       id="marker2528"
       overflow="visible"
       orient="auto">
      <path
         transform="matrix(0.8,0,0,0.8,10,0)"
         d="M 0,0 5,-5 -12.5,0 5,5 Z"
         fill-rule="evenodd"
         stroke="#000000"
         stroke-width="1pt"
         id="path8732" />
    </marker>
    <marker
       id="marker2404"
       overflow="visible"
       orient="auto">
      <path
         transform="matrix(0.8,0,0,0.8,10,0)"
         d="M 0,0 5,-5 -12.5,0 5,5 Z"
         fill-rule="evenodd"
         stroke="#000000"
         stroke-width="1pt"
         id="path8735" />
    </marker>
    <marker
       id="marker2286"
       overflow="visible"
       orient="auto">
      <path
         transform="matrix(0.8,0,0,0.8,10,0)"
         d="M 0,0 5,-5 -12.5,0 5,5 Z"
         fill-rule="evenodd"
         stroke="#000000"
         stroke-width="1pt"
         id="path8738" />
    </marker>
    <marker
       id="marker2174"
       overflow="visible"
       orient="auto">
      <path
         transform="matrix(0.8,0,0,0.8,10,0)"
         d="M 0,0 5,-5 -12.5,0 5,5 Z"
         fill-rule="evenodd"
         stroke="#000000"
         stroke-width="1pt"
         id="path8741" />
    </marker>
    <marker
       id="marker2068"
       overflow="visible"
       orient="auto">
      <path
         transform="matrix(0.8,0,0,0.8,10,0)"
         d="M 0,0 5,-5 -12.5,0 5,5 Z"
         fill-rule="evenodd"
         stroke="#000000"
         stroke-width="1pt"
         id="path8744" />
    </marker>
    <marker
       id="marker1968"
       overflow="visible"
       orient="auto">
      <path
         transform="matrix(0.8,0,0,0.8,10,0)"
         d="M 0,0 5,-5 -12.5,0 5,5 Z"
         fill-rule="evenodd"
         stroke="#000000"
         stroke-width="1pt"
         id="path8747" />
    </marker>
    <marker
       id="marker1786"
       overflow="visible"
       orient="auto">
      <path
         transform="matrix(0.8,0,0,0.8,10,0)"
         d="M 0,0 5,-5 -12.5,0 5,5 Z"
         fill-rule="evenodd"
         stroke="#000000"
         stroke-width="1pt"
         id="path8750" />
    </marker>
    <marker
       id="marker1704"
       overflow="visible"
       orient="auto">
      <path
         transform="matrix(0.8,0,0,0.8,10,0)"
         d="M 0,0 5,-5 -12.5,0 5,5 Z"
         fill-rule="evenodd"
         stroke="#000000"
         stroke-width="1pt"
         id="path8753" />
    </marker>
    <marker
       id="marker1558"
       overflow="visible"
       orient="auto">
      <path
         transform="matrix(0.8,0,0,0.8,10,0)"
         d="M 0,0 5,-5 -12.5,0 5,5 Z"
         fill-rule="evenodd"
         stroke="#000000"
         stroke-width="1pt"
         id="path8756" />
    </marker>
    <marker
       id="marker1494"
       overflow="visible"
       orient="auto">
      <path
         transform="matrix(0.8,0,0,0.8,10,0)"
         d="M 0,0 5,-5 -12.5,0 5,5 Z"
         fill-rule="evenodd"
         stroke="#000000"
         stroke-width="1pt"
         id="path8759" />
    </marker>
    <marker
       id="marker1436"
       overflow="visible"
       orient="auto">
      <path
         transform="matrix(0.8,0,0,0.8,10,0)"
         d="M 0,0 5,-5 -12.5,0 5,5 Z"
         fill-rule="evenodd"
         stroke="#000000"
         stroke-width="1pt"
         id="path8762" />
    </marker>
    <marker
       id="marker1384"
       overflow="visible"
       orient="auto">
      <path
         transform="matrix(0.8,0,0,0.8,10,0)"
         d="M 0,0 5,-5 -12.5,0 5,5 Z"
         fill-rule="evenodd"
         stroke="#000000"
         stroke-width="1pt"
         id="path8765" />
    </marker>
    <marker
       id="marker1338"
       overflow="visible"
       orient="auto">
      <path
         transform="matrix(0.8,0,0,0.8,10,0)"
         d="M 0,0 5,-5 -12.5,0 5,5 Z"
         fill-rule="evenodd"
         stroke="#000000"
         stroke-width="1pt"
         id="path8768" />
    </marker>
    <marker
       id="marker1298"
       overflow="visible"
       orient="auto">
      <path
         transform="matrix(0.8,0,0,0.8,10,0)"
         d="M 0,0 5,-5 -12.5,0 5,5 Z"
         fill-rule="evenodd"
         stroke="#000000"
         stroke-width="1pt"
         id="path8771" />
    </marker>
    <marker
       id="marker1264"
       overflow="visible"
       orient="auto">
      <path
         transform="matrix(0.8,0,0,0.8,10,0)"
         d="M 0,0 5,-5 -12.5,0 5,5 Z"
         fill-rule="evenodd"
         stroke="#000000"
         stroke-width="1pt"
         id="path8774" />
    </marker>
    <marker
       id="marker1236"
       overflow="visible"
       orient="auto">
      <path
         transform="matrix(0.8,0,0,0.8,10,0)"
         d="M 0,0 5,-5 -12.5,0 5,5 Z"
         fill-rule="evenodd"
         stroke="#000000"
         stroke-width="1pt"
         id="path8777" />
    </marker>
    <marker
       id="marker1214"
       overflow="visible"
       orient="auto">
      <path
         transform="matrix(0.8,0,0,0.8,10,0)"
         d="M 0,0 5,-5 -12.5,0 5,5 Z"
         fill-rule="evenodd"
         stroke="#000000"
         stroke-width="1pt"
         id="path8780" />
    </marker>
  </defs>
  <g
     transform="translate(68.214981,-70.749147)"
     fill="none"
     opacity="0.999"
     stroke="#000000"
     stroke-linecap="round"
     stroke-width="2.6588"
     id="g8835">
    <path
       d="m 157.83,112.45 a 49.515,49.515 0 0 1 2.8096,16.442 49.515,49.515 0 0 1 -49.515,49.515 49.515,49.515 0 0 1 -49.515,-49.515 49.515,49.515 0 0 1 49.515,-49.515 49.515,49.515 0 0 1 14.174,2.0721"
       stroke-linejoin="round"
       id="path8785"
       style="stroke-width:4.43151;stroke-miterlimit:4;stroke-dasharray:none" />
    <g
       id="g8833">
      <path
         d="m 61.234,131.76 -5.2118,-4.6772"
         id="path8787"
         style="stroke-width:2.84400627;stroke-miterlimit:4;stroke-dasharray:none" />
      <path
         d="m 62.571,119.2 6.1472,-2.6727"
         id="path8789"
         style="stroke-width:2.84400627;stroke-miterlimit:4;stroke-dasharray:none" />
      <path
         d="m 58.368,108.98 5.4659,3.8801"
         opacity="0.999"
         id="path8791"
         style="stroke-width:2.84400627;stroke-miterlimit:4;stroke-dasharray:none" />
      <path
         d="m 69.252,103.57 6.8154,-0.53454"
         id="path8793"
         style="stroke-width:2.84400627;stroke-miterlimit:4;stroke-dasharray:none" />
      <path
         d="m 73.796,95.549 -1.47,-7.6172"
         id="path8795"
         style="stroke-width:2.84400627;stroke-miterlimit:4;stroke-dasharray:none" />
      <path
         d="m 81.146,89.803 1.7373,4.009"
         id="path8797"
         style="stroke-width:2.84400627;stroke-miterlimit:4;stroke-dasharray:none" />
      <path
         d="M 86.491,85.794 82.2147,82.5868"
         id="path8799"
         style="stroke-width:2.84400627;stroke-miterlimit:4;stroke-dasharray:none" />
      <path
         d="m 95.177,82.052 3.7418,3.2072"
         id="path8801"
         style="stroke-width:2.84400627;stroke-miterlimit:4;stroke-dasharray:none" />
      <path
         d="m 102.66,79.513 3.2072,-6.5481"
         id="path8803"
         style="stroke-width:2.84400627;stroke-miterlimit:4;stroke-dasharray:none" />
      <path
         d="m 111.12,79.375 5.3003,4.8149"
         id="path8805"
         style="stroke-width:2.84400627;stroke-miterlimit:4;stroke-dasharray:none" />
      <path
         d="m 120.03,79.646 7.4836,-2.94"
         id="path8807"
         style="stroke-width:2.84400627;stroke-miterlimit:4;stroke-dasharray:none" />
      <path
         d="m 158.39,116.4 -5.8799,-2.94"
         id="path8809"
         style="stroke-width:2.84400627;stroke-miterlimit:4;stroke-dasharray:none" />
      <path
         d="m 160.93,124.28 3.6081,-4.9445"
         id="path8811"
         style="stroke-width:2.84400627;stroke-miterlimit:4;stroke-dasharray:none" />
      <path
         d="m 159.59,136.31 c -1.0691,-0.53454 -4.8108,-4.41 -4.8108,-4.41"
         id="path8813"
         style="stroke-width:2.84400627;stroke-miterlimit:4;stroke-dasharray:none" />
      <path
         d="m 158.79,144.99 4.1427,-3.0736"
         id="path8815"
         style="stroke-width:2.84400627;stroke-miterlimit:4;stroke-dasharray:none" />
      <path
         d="m 153.71,153.68 -2.0045,-5.3454"
         id="path8817"
         style="stroke-width:2.84400627;stroke-miterlimit:4;stroke-dasharray:none" />
      <path
         d="m 150.1,160.23 6.5481,-0.53454"
         id="path8819"
         style="stroke-width:2.84400627;stroke-miterlimit:4;stroke-dasharray:none" />
      <path
         d="m 144.22,166.38 5.479,0.53454"
         id="path8821"
         style="stroke-width:2.84400627;stroke-miterlimit:4;stroke-dasharray:none" />
      <path
         d="m 134.33,172.12 c 0.93544,-0.4009 3.3409,-6.949 3.3409,-6.949"
         id="path8823"
         style="stroke-width:2.84400627;stroke-miterlimit:4;stroke-dasharray:none" />
      <path
         d="m 146.09,161.97 -1.8709,-6.0136"
         id="path8825"
         style="stroke-width:2.84400627;stroke-miterlimit:4;stroke-dasharray:none" />
      <path
         d="M 35.933298,123.21 H -49.951768"
         id="path8827"
         style="stroke-width:4.43151;stroke-miterlimit:4;stroke-dasharray:none" />
      <path
         d="M 19.885839,133.37 H -65.999228"
         opacity="0.999"
         id="path8829"
         style="stroke-width:4.43151;stroke-miterlimit:4;stroke-dasharray:none" />
      <path
         d="M 51.984003,142.99 H -33.901063"
         opacity="0.999"
         id="path8831"
         style="stroke-width:4.43151;stroke-miterlimit:4;stroke-dasharray:none" />
    </g>
  </g>
  <g
     transform="translate(68.214981,-70.749147)"
     fill="none"
     stroke="#000000"
     stroke-linecap="round"
     stroke-width="2.6588"
     id="g8891"
     style="stroke-width:4.43151;stroke-miterlimit:4;stroke-dasharray:none">
    <path
       d="m 132.85,127.43 a 34.018,34.018 0 0 1 2.6458,11.15 34.018,34.018 0 0 1 -31.782,36.115 34.018,34.018 0 0 1 -36.115,-31.782 34.018,34.018 0 0 1 31.782,-36.115 34.018,34.018 0 0 1 9.8088,0.80045"
       stroke-linejoin="round"
       id="path8837"
       style="stroke-width:4.43151;stroke-miterlimit:4;stroke-dasharray:none" />
    <g
       id="g8889"
       style="stroke-width:2.84400627;stroke-miterlimit:4;stroke-dasharray:none">
      <path
         d="m 134.87,133.5 4.1427,-3.7418"
         marker-mid="url(#marker4098)"
         id="path8839"
         style="stroke-width:2.84400627;stroke-miterlimit:4;stroke-dasharray:none" />
      <path
         d="m 135.13,145.66 -4.009,-5.3454"
         marker-mid="url(#marker4108)"
         id="path8841"
         style="stroke-width:2.84400627;stroke-miterlimit:4;stroke-dasharray:none" />
      <path
         d="m 133,155.55 4.5436,-1.0691"
         marker-mid="url(#marker1214)"
         id="path8843"
         style="stroke-width:2.84400627;stroke-miterlimit:4;stroke-dasharray:none" />
      <path
         d="m 129.25,160.36 -2.2718,-4.2763"
         marker-mid="url(#marker1236)"
         id="path8845"
         style="stroke-width:2.84400627;stroke-miterlimit:4;stroke-dasharray:none" />
      <path
         d="m 125.38,165.97 6.1472,0.13364"
         marker-mid="url(#marker1264)"
         id="path8847"
         style="stroke-width:2.84400627;stroke-miterlimit:4;stroke-dasharray:none" />
      <path
         d="m 120.43,168.65 -0.80181,-4.9445"
         marker-mid="url(#marker1298)"
         id="path8849"
         style="stroke-width:2.84400627;stroke-miterlimit:4;stroke-dasharray:none" />
      <path
         d="m 115.36,171.99 5.8799,1.8709"
         marker-mid="url(#marker1338)"
         id="path8851"
         style="stroke-width:2.84400627;stroke-miterlimit:4;stroke-dasharray:none" />
      <path
         d="m 109.88,173.73 0.53454,-5.7463"
         marker-mid="url(#marker1384)"
         id="path8853"
         style="stroke-width:2.84400627;stroke-miterlimit:4;stroke-dasharray:none" />
      <path
         d="m 104,173.59 -2.94,-5.8799"
         marker-mid="url(#marker1436)"
         id="path8855"
         style="stroke-width:2.84400627;stroke-miterlimit:4;stroke-dasharray:none" />
      <path
         d="m 79.601,166.22 5.8214,-0.78274"
         marker-mid="url(#marker1494)"
         id="path8857"
         style="stroke-width:2.84400627;stroke-miterlimit:4;stroke-dasharray:none" />
      <path
         d="m 93.841,173.73 -1.0691,-5.479"
         marker-mid="url(#marker1558)"
         id="path8859"
         style="stroke-width:2.84400627;stroke-miterlimit:4;stroke-dasharray:none" />
      <path
         d="m 74.063,160.36 2.2718,-5.0781"
         marker-mid="url(#marker1704)"
         id="path8861"
         style="stroke-width:2.84400627;stroke-miterlimit:4;stroke-dasharray:none" />
      <path
         d="m 68.584,146.6 4.2763,-0.66817"
         marker-mid="url(#marker1786)"
         id="path8863"
         style="stroke-width:2.84400627;stroke-miterlimit:4;stroke-dasharray:none" />
      <path
         d="m 69.108,133.37 7.3499,-1.47"
         marker-mid="url(#marker1968)"
         id="path8865"
         style="stroke-width:2.84400627;stroke-miterlimit:4;stroke-dasharray:none" />
      <path
         d="m 71.257,124.41 -4.2763,-0.93544"
         marker-mid="url(#marker2068)"
         id="path8867"
         style="stroke-width:2.84400627;stroke-miterlimit:4;stroke-dasharray:none" />
      <path
         d="m 74.721,121.47 3.4745,4.009"
         marker-mid="url(#marker2174)"
         id="path8869"
         style="stroke-width:2.84400627;stroke-miterlimit:4;stroke-dasharray:none" />
      <path
         d="m 76.335,115.99 -3.0736,-5.479"
         marker-mid="url(#marker2286)"
         id="path8871"
         style="stroke-width:2.84400627;stroke-miterlimit:4;stroke-dasharray:none" />
      <path
         d="m 81.001,114.52 4.9445,2.2718"
         marker-mid="url(#marker2404)"
         id="path8873"
         style="stroke-width:2.84400627;stroke-miterlimit:4;stroke-dasharray:none" />
      <path
         d="m 87.026,109.45 -4.2763,-2.2718"
         marker-mid="url(#marker2528)"
         id="path8875"
         style="stroke-width:2.84400627;stroke-miterlimit:4;stroke-dasharray:none" />
      <path
         d="m 91.837,108.24 -1.6036,4.6772"
         marker-mid="url(#marker2658)"
         id="path8877"
         style="stroke-width:2.84400627;stroke-miterlimit:4;stroke-dasharray:none" />
      <path
         d="m 95.177,107.31 -0.80181,-4.4099"
         marker-mid="url(#marker2794)"
         id="path8879"
         style="stroke-width:2.84400627;stroke-miterlimit:4;stroke-dasharray:none" />
      <path
         d="m 99.587,107.58 1.3363,4.009"
         marker-mid="url(#marker2936)"
         id="path8881"
         style="stroke-width:2.84400627;stroke-miterlimit:4;stroke-dasharray:none" />
      <path
         d="m 104.23,106.3 3.1416,-4.6607"
         marker-mid="url(#marker3398)"
         id="path8883"
         style="stroke-width:2.84400627;stroke-miterlimit:4;stroke-dasharray:none" />
      <path
         d="m 135.5,138.58 5.1133,2.5358"
         marker-mid="url(#marker3736)"
         id="path8885"
         style="stroke-width:2.84400627;stroke-miterlimit:4;stroke-dasharray:none" />
      <path
         d="m 134.33,149.8 4.5436,-2.0045"
         marker-mid="url(#marker3914)"
         id="path8887"
         style="stroke-width:2.84400627;stroke-miterlimit:4;stroke-dasharray:none" />
    </g>
  </g>
  <g
     transform="translate(68.214981,-70.749147)"
     fill="none"
     opacity="0.995"
     stroke="#000000"
     stroke-linecap="round"
     stroke-width="2.6588"
     id="g8907"
     style="stroke-width:4.43151;stroke-miterlimit:4;stroke-dasharray:none">
    <path
       d="m 79.601,166.22 27.292,-33.579"
       id="path8893"
       style="stroke-width:4.43151;stroke-miterlimit:4;stroke-dasharray:none" />
    <g
       stroke-dasharray="2.6588, 5.3176"
       id="g8905"
       style="stroke-width:2.84400627;stroke-miterlimit:4;stroke-dasharray:none">
      <path
         d="m 83.818,159.16 -0.93544,-6.2808"
         id="path8895"
         style="stroke-width:2.84400627;stroke-miterlimit:4;stroke-dasharray:none" />
      <path
         d="m 89.565,155.55 6.5481,-0.80181"
         id="path8897"
         style="stroke-width:2.84400627;stroke-miterlimit:4;stroke-dasharray:none" />
      <path
         d="m 93.841,147.8 -2.2718,-6.2808"
         id="path8899"
         style="stroke-width:2.84400627;stroke-miterlimit:4;stroke-dasharray:none" />
      <path
         d="m 100.31,142.31 6.7343,0.86095"
         id="path8901"
         style="stroke-width:2.84400627;stroke-miterlimit:4;stroke-dasharray:none" />
      <path
         d="m 104.26,134.57 -2.0045,-6.6817"
         id="path8903"
         style="stroke-width:2.84400627;stroke-miterlimit:4;stroke-dasharray:none" />
    </g>
  </g>
  <g
     inkscape:groupmode="layer"
     id="layer4"
     inkscape:label="Layer 1" />
</svg>
